<svg width="9" height="16" viewBox="0 0 9 16" fill="none" xmlns="http://www.w3.org/2000/svg">
<rect width="9" height="16" fill="#F5F5F5"/>
<g clip-path="url(#clip0_0_1)">
<rect width="320" height="3731" transform="translate(-148 -3486)" fill="white"/>
<path d="M-148 -270H172V245H-148V-270Z" fill="black"/>
<rect x="-20" y="-16" width="48" height="48" fill="white" fill-opacity="0.1"/>
<rect x="-19.5" y="-15.5" width="47" height="47" stroke="black" stroke-opacity="0.16"/>
<g clip-path="url(#clip1_0_1)">
<path d="M5.39329 16V8.70162H7.84302L8.20983 5.85732H5.39329V4.04141C5.39329 3.21792 5.62196 2.65673 6.80284 2.65673L8.30899 2.65608V0.112105C8.04851 0.0774423 7.15444 0 6.11426 0C3.94272 0 2.45602 1.32551 2.45602 3.75972V5.85732H0V8.70162H2.45602V16H5.39329Z" fill="white"/>
</g>
</g>
<defs>
<clipPath id="clip0_0_1">
<rect width="320" height="3731" fill="white" transform="translate(-148 -3486)"/>
</clipPath>
<clipPath id="clip1_0_1">
<rect width="9" height="16" fill="white"/>
</clipPath>
</defs>
</svg>
