<svg width="100" height="20" viewBox="0 0 100 20" fill="none" xmlns="http://www.w3.org/2000/svg">
<g clip-path="url(#clip0_2031_75)">
<path d="M0 19.6567V0H16.4741C18.5998 0 20.3934 0.352886 21.8548 1.05866C23.3352 1.76443 24.4549 2.84216 25.2141 4.29185C25.9923 5.72246 26.3813 7.56319 26.3813 9.81402C26.3813 12.0458 25.9923 13.896 25.2141 15.3648C24.4549 16.8145 23.3352 17.8922 21.8548 18.598C20.3934 19.3038 18.5998 19.6567 16.4741 19.6567H0ZM5.09596 15.6509H16.4172C17.2143 15.6509 17.907 15.5365 18.4954 15.3076C19.0838 15.0787 19.5772 14.7449 19.9758 14.3062C20.3744 13.8674 20.6686 13.3238 20.8583 12.6752C21.0481 12.0267 21.143 11.2828 21.143 10.4435V9.24177C21.143 8.38341 21.0481 7.62995 20.8583 6.9814C20.6686 6.33286 20.3744 5.78922 19.9758 5.3505C19.5772 4.91178 19.0838 4.57797 18.4954 4.34907C17.907 4.12017 17.2143 4.00572 16.4172 4.00572H5.09596V15.6509Z" fill="white"/>
<path d="M29.5096 19.6567V0H49.1723C50.6147 0 51.8199 0.276585 52.7878 0.829756C53.7558 1.36385 54.477 2.10777 54.9515 3.06152C55.4449 3.99618 55.6917 5.0453 55.6917 6.20887C55.6917 7.46781 55.3975 8.59323 54.8091 9.58512C54.2397 10.5579 53.4331 11.3209 52.3893 11.8741L56.318 19.6567H50.6242L47.3787 12.7325H34.6056V19.6567H29.5096ZM34.6056 8.92704H48.1758C48.8781 8.92704 49.438 8.69814 49.8555 8.24034C50.292 7.76347 50.5103 7.134 50.5103 6.35193C50.5103 5.83691 50.4154 5.39819 50.2256 5.03576C50.0358 4.67334 49.7701 4.39676 49.4285 4.20601C49.0868 3.99618 48.6693 3.89127 48.1758 3.89127H34.6056V8.92704Z" fill="white"/>
<path d="M67.6818 20C65.8029 20 64.1801 19.7043 62.8136 19.113C61.4661 18.5217 60.4317 17.6347 59.7105 16.4521C58.9893 15.2694 58.6287 13.8007 58.6287 12.0458V0H63.7531V11.9313C63.7531 13.1903 64.0852 14.1822 64.7495 14.907C65.4138 15.6319 66.3912 15.9943 67.6818 15.9943C68.9724 15.9943 69.9594 15.6319 70.6426 14.907C71.3259 14.1822 71.6675 13.1903 71.6675 11.9313V0H76.7635V12.0458C76.7635 13.8007 76.4029 15.2694 75.6816 16.4521C74.9604 17.6347 73.926 18.5217 72.5785 19.113C71.231 19.7043 69.5987 20 67.6818 20Z" fill="white"/>
<path d="M80.698 19.6567V0H85.7939V8.72675L93.5375 0H99.8577L92.5696 8.04006L100 19.6567H93.9646L89.0394 11.5308L85.7939 14.5351V19.6567H80.698Z" fill="white"/>
</g>
<defs>
<clipPath id="clip0_2031_75">
<rect width="100" height="20" fill="white"/>
</clipPath>
</defs>
</svg>
