<svg width="43" height="16" viewBox="0 0 43 16" fill="none" xmlns="http://www.w3.org/2000/svg">
<path d="M4.99219 10.2734L8.34375 0.625H9.97656L5.76562 12H4.60156L4.99219 10.2734ZM1.85938 0.625L5.17969 10.2734L5.59375 12H4.42969L0.226562 0.625H1.85938ZM14.4531 12.1562C13.8646 12.1562 13.3307 12.0573 12.8516 11.8594C12.3776 11.6562 11.9688 11.3724 11.625 11.0078C11.2865 10.6432 11.026 10.2109 10.8438 9.71094C10.6615 9.21094 10.5703 8.66406 10.5703 8.07031V7.74219C10.5703 7.05469 10.6719 6.44271 10.875 5.90625C11.0781 5.36458 11.3542 4.90625 11.7031 4.53125C12.0521 4.15625 12.4479 3.8724 12.8906 3.67969C13.3333 3.48698 13.7917 3.39062 14.2656 3.39062C14.8698 3.39062 15.3906 3.49479 15.8281 3.70312C16.2708 3.91146 16.6328 4.20312 16.9141 4.57812C17.1953 4.94792 17.4036 5.38542 17.5391 5.89062C17.6745 6.39062 17.7422 6.9375 17.7422 7.53125V8.17969H11.4297V7H16.2969V6.89062C16.276 6.51562 16.1979 6.15104 16.0625 5.79688C15.9323 5.44271 15.724 5.15104 15.4375 4.92188C15.151 4.69271 14.7604 4.57812 14.2656 4.57812C13.9375 4.57812 13.6354 4.64844 13.3594 4.78906C13.0833 4.92448 12.8464 5.1276 12.6484 5.39844C12.4505 5.66927 12.2969 6 12.1875 6.39062C12.0781 6.78125 12.0234 7.23177 12.0234 7.74219V8.07031C12.0234 8.47135 12.0781 8.84896 12.1875 9.20312C12.3021 9.55208 12.4661 9.85938 12.6797 10.125C12.8984 10.3906 13.1615 10.599 13.4688 10.75C13.7812 10.901 14.1354 10.9766 14.5312 10.9766C15.0417 10.9766 15.474 10.8724 15.8281 10.6641C16.1823 10.4557 16.4922 10.1771 16.7578 9.82812L17.6328 10.5234C17.4505 10.7995 17.2188 11.0625 16.9375 11.3125C16.6562 11.5625 16.3099 11.7656 15.8984 11.9219C15.4922 12.0781 15.0104 12.1562 14.4531 12.1562ZM21 0V12H19.5469V0H21ZM23.3594 3.54688H24.8125V13.0078C24.8125 13.5234 24.7292 13.9609 24.5625 14.3203C24.401 14.6797 24.1562 14.9505 23.8281 15.1328C23.5052 15.3203 23.0964 15.4141 22.6016 15.4141C22.4714 15.4141 22.3203 15.401 22.1484 15.375C21.9714 15.349 21.8229 15.3177 21.7031 15.2812L21.7109 14.1172C21.8099 14.138 21.9219 14.1536 22.0469 14.1641C22.1719 14.1797 22.2812 14.1875 22.375 14.1875C22.5885 14.1875 22.7682 14.1484 22.9141 14.0703C23.0599 13.9922 23.1693 13.8672 23.2422 13.6953C23.3203 13.5234 23.3594 13.2943 23.3594 13.0078V3.54688ZM23.2109 1.30469C23.2109 1.07031 23.2839 0.872396 23.4297 0.710938C23.5755 0.549479 23.7865 0.46875 24.0625 0.46875C24.3438 0.46875 24.5573 0.549479 24.7031 0.710938C24.849 0.872396 24.9219 1.07031 24.9219 1.30469C24.9219 1.52865 24.849 1.72135 24.7031 1.88281C24.5573 2.03906 24.3438 2.11719 24.0625 2.11719C23.7865 2.11719 23.5755 2.03906 23.4297 1.88281C23.2839 1.72135 23.2109 1.52865 23.2109 1.30469ZM28.6016 0V12H27.1484V0H28.6016ZM33.7656 3.54688L30.0781 7.49219L28.0156 9.63281L27.8984 8.09375L29.375 6.32812L32 3.54688H33.7656ZM32.4453 12L29.4297 7.96875L30.1797 6.67969L34.1484 12H32.4453ZM34.875 7.86719V7.6875C34.875 7.07812 34.9635 6.51302 35.1406 5.99219C35.3177 5.46615 35.5729 5.01042 35.9062 4.625C36.2396 4.23438 36.6432 3.93229 37.1172 3.71875C37.5911 3.5 38.1224 3.39062 38.7109 3.39062C39.3047 3.39062 39.8385 3.5 40.3125 3.71875C40.7917 3.93229 41.1979 4.23438 41.5312 4.625C41.8698 5.01042 42.1276 5.46615 42.3047 5.99219C42.4818 6.51302 42.5703 7.07812 42.5703 7.6875V7.86719C42.5703 8.47656 42.4818 9.04167 42.3047 9.5625C42.1276 10.0833 41.8698 10.5391 41.5312 10.9297C41.1979 11.3151 40.7943 11.6172 40.3203 11.8359C39.8516 12.0495 39.3203 12.1562 38.7266 12.1562C38.1328 12.1562 37.599 12.0495 37.125 11.8359C36.651 11.6172 36.2448 11.3151 35.9062 10.9297C35.5729 10.5391 35.3177 10.0833 35.1406 9.5625C34.9635 9.04167 34.875 8.47656 34.875 7.86719ZM36.3203 7.6875V7.86719C36.3203 8.28906 36.3698 8.6875 36.4688 9.0625C36.5677 9.43229 36.7161 9.76042 36.9141 10.0469C37.1172 10.3333 37.3698 10.5599 37.6719 10.7266C37.974 10.888 38.3255 10.9688 38.7266 10.9688C39.1224 10.9688 39.4688 10.888 39.7656 10.7266C40.0677 10.5599 40.3177 10.3333 40.5156 10.0469C40.7135 9.76042 40.862 9.43229 40.9609 9.0625C41.0651 8.6875 41.1172 8.28906 41.1172 7.86719V7.6875C41.1172 7.27083 41.0651 6.8776 40.9609 6.50781C40.862 6.13281 40.7109 5.80208 40.5078 5.51562C40.3099 5.22396 40.0599 4.99479 39.7578 4.82812C39.4609 4.66146 39.112 4.57812 38.7109 4.57812C38.3151 4.57812 37.9661 4.66146 37.6641 4.82812C37.3672 4.99479 37.1172 5.22396 36.9141 5.51562C36.7161 5.80208 36.5677 6.13281 36.4688 6.50781C36.3698 6.8776 36.3203 7.27083 36.3203 7.6875Z" fill="#FF7143"/>
</svg>
