<svg width="112" height="36" viewBox="0 0 112 36" fill="none" xmlns="http://www.w3.org/2000/svg">
<g id="IMAGE">
<path id="Vector" d="M48.391 21.177C48.391 16.911 45.88 13.698 41.992 13.698C40.264 13.698 38.806 14.427 37.753 15.831V9H34V28.386H37.456V26.307C38.563 27.819 40.129 28.656 41.992 28.656C45.88 28.656 48.391 25.389 48.391 21.177ZM44.53 21.177C44.53 23.877 42.991 25.308 41.155 25.308C39.292 25.308 37.78 23.85 37.78 21.123C37.78 18.396 39.346 17.019 41.155 17.019C42.991 17.019 44.53 18.423 44.53 21.177ZM53.2259 28.386V9H49.4459V28.386H53.2259ZM63.8274 28.386H66.8784V19.314C66.8784 15.777 64.6644 13.698 60.8844 13.698C57.4014 13.698 54.9984 15.858 54.7824 19.179H58.1574C58.2924 17.559 59.2644 16.614 60.8844 16.614C62.4504 16.614 63.3684 17.559 63.3684 19.179V20.043C62.4774 19.935 61.7754 19.881 60.9654 19.881C56.7534 19.881 54.4854 21.393 54.4854 24.201C54.4854 26.901 56.4834 28.656 59.4804 28.656C61.4514 28.656 62.8824 27.954 63.8274 26.604V28.386ZM58.0224 24.093C58.0224 22.797 59.0754 22.122 61.2084 22.122C61.8564 22.122 62.4774 22.176 63.3684 22.311V23.337C63.3684 25.011 62.2074 26.064 60.2904 26.064C58.8864 26.064 58.0224 25.308 58.0224 24.093ZM72.5155 20.529C72.5155 18.207 73.7845 17.019 75.2695 17.019C76.9705 17.019 77.8075 18.207 77.8075 20.34V28.386H81.5335V19.071C81.5335 15.588 79.5355 13.698 76.6465 13.698C74.7565 13.698 73.2715 14.589 72.2185 16.02V13.968H68.7625V28.386H72.5155V20.529ZM87.1704 28.386V21.69L92.6784 28.386H97.4574L90.7884 20.88L96.7554 13.968H92.4354L87.1704 20.07V9H83.4174V28.386H87.1704ZM103.31 28.656C107.495 28.656 110.627 25.362 110.627 21.177C110.627 16.965 107.495 13.698 103.31 13.698C99.1255 13.698 95.9935 16.965 95.9935 21.177C95.9935 25.362 99.1255 28.656 103.31 28.656ZM103.31 25.335C101.447 25.335 99.8545 23.85 99.8545 21.177C99.8545 18.504 101.447 17.046 103.31 17.046C105.173 17.046 106.766 18.504 106.766 21.177C106.766 23.85 105.173 25.335 103.31 25.335Z" fill="white"/>
<path id="Vector_2" d="M22 6H17V23H22V6Z" fill="#FF7043"/>
<path id="Vector_3" d="M17 28V23H0V28H17Z" fill="#FF7043"/>
<path id="Vector_4" d="M22 11V6L5 6V11H22Z" fill="#FF7043"/>
<path id="Vector_5" d="M0 28H5L5 11H0L0 28Z" fill="#FF7043"/>
</g>
</svg>
